<?xml version="1.0" standalone="no"?>
<!DOCTYPE svg PUBLIC "-//W3C//DTD SVG 20010904//EN"
 "http://www.w3.org/TR/2001/REC-SVG-20010904/DTD/svg10.dtd">
<svg version="1.0" xmlns="http://www.w3.org/2000/svg"
 width="800.000000pt" height="800.000000pt" viewBox="0 0 800.000000 800.000000"
 preserveAspectRatio="xMidYMid meet">
<metadata>
Created by potrace 1.14, written by Peter Selinger 2001-2017
</metadata>
<g transform="translate(0.000000,800.000000) scale(0.100000,-0.100000)"
fill="#000000" stroke="none">
<path d="M3726 7983 c-2 -3 -33 -7 -68 -9 -35 -2 -79 -6 -98 -8 -35 -5 -118
-15 -175 -21 -16 -2 -30 -4 -30 -5 0 -1 -13 -4 -30 -6 -16 -3 -70 -13 -120
-24 -49 -11 -101 -22 -115 -24 -14 -3 -52 -12 -85 -21 -33 -9 -64 -17 -70 -18
-5 -2 -16 -6 -22 -10 -7 -5 -13 -6 -13 -3 0 3 -26 -4 -57 -15 -32 -11 -59 -19
-61 -19 -5 2 -216 -75 -307 -112 -159 -65 -378 -175 -533 -269 -128 -78 -305
-198 -310 -211 -2 -4 -8 -8 -13 -8 -9 0 -36 -20 -68 -50 -9 -8 -32 -26 -51
-40 -19 -13 -45 -34 -56 -45 -12 -11 -41 -36 -65 -55 -55 -44 -328 -317 -391
-390 -26 -30 -79 -95 -117 -145 -39 -49 -77 -97 -84 -105 -7 -8 -35 -49 -63
-90 -27 -41 -52 -77 -55 -80 -18 -16 -163 -266 -229 -395 -73 -144 -144 -304
-175 -395 -1 -3 -6 -16 -12 -30 -12 -30 -54 -151 -57 -165 -1 -5 -11 -37 -20
-70 -23 -76 -27 -89 -27 -92 0 -2 -5 -17 -10 -35 -5 -18 -19 -73 -30 -123 -28
-123 -29 -125 -35 -165 -3 -19 -7 -41 -9 -48 -3 -7 -7 -39 -10 -70 -4 -31 -8
-64 -10 -72 -3 -8 -7 -37 -10 -65 -3 -27 -7 -68 -10 -90 -18 -135 -25 -557
-13 -680 27 -251 33 -302 43 -345 3 -14 7 -41 10 -60 3 -19 7 -46 10 -60 3
-14 8 -36 11 -50 12 -60 55 -231 74 -295 12 -38 23 -81 26 -95 3 -14 9 -29 15
-35 5 -5 9 -19 9 -31 0 -13 4 -25 9 -28 4 -3 11 -20 15 -37 5 -27 61 -172 103
-269 48 -111 188 -381 243 -469 33 -53 171 -264 181 -274 5 -7 23 -30 39 -52
101 -136 228 -282 363 -418 136 -136 187 -183 325 -298 11 -9 55 -43 98 -75
44 -32 81 -62 84 -65 7 -8 268 -179 273 -179 3 0 34 -17 68 -38 135 -82 431
-223 569 -272 19 -6 44 -16 55 -20 37 -16 220 -74 220 -70 0 2 9 -2 21 -8 11
-6 32 -13 45 -16 13 -2 79 -18 146 -34 67 -17 136 -33 155 -36 18 -3 47 -8 63
-12 53 -10 106 -18 270 -39 208 -27 690 -27 900 0 17 2 55 7 85 10 30 4 57 8
60 10 3 2 30 6 60 10 30 3 62 8 70 10 15 4 34 8 95 20 219 42 681 194 828 272
18 9 35 17 38 18 12 0 224 110 227 118 2 4 12 7 22 7 10 0 20 3 22 8 2 4 37
27 78 52 105 61 296 188 310 205 7 8 17 15 22 15 9 0 22 10 56 41 9 8 37 31
62 49 25 19 51 40 58 47 7 7 33 29 59 50 26 21 56 47 68 58 12 11 46 43 76 71
246 231 494 542 686 859 70 116 253 477 253 499 0 2 8 21 17 42 9 22 18 44 19
49 1 6 14 42 29 80 15 39 29 81 32 94 2 14 7 29 11 35 4 6 7 13 8 16 0 3 3 12
7 20 14 37 101 373 121 470 3 14 7 36 10 50 3 14 11 52 17 85 29 160 33 213
33 510 0 252 -3 319 -18 502 -4 44 -19 158 -31 228 -1 11 -6 38 -9 60 -3 22
-8 51 -12 65 -3 14 -7 34 -9 45 -2 11 -11 49 -20 85 -9 36 -18 74 -20 85 -3
11 -7 29 -9 40 -3 11 -14 52 -26 90 -12 39 -23 81 -26 95 -3 14 -9 29 -15 34
-5 6 -9 18 -9 28 0 10 -4 26 -9 36 -6 9 -19 44 -30 77 -20 61 -59 158 -102
250 -12 28 -23 52 -24 55 -4 19 -71 146 -77 148 -4 2 -8 11 -8 21 0 9 -8 28
-17 41 -20 27 -54 87 -79 138 -9 17 -20 32 -25 32 -5 0 -9 4 -9 10 0 13 -62
114 -72 118 -4 2 -8 10 -8 18 0 8 -4 14 -8 14 -5 0 -14 11 -20 25 -7 14 -16
31 -22 38 -6 7 -42 54 -80 105 -38 51 -74 98 -80 105 -6 7 -18 22 -28 33 -76
95 -118 140 -272 294 -97 96 -187 184 -200 194 -14 11 -41 33 -60 50 -20 17
-51 42 -69 56 -19 14 -42 32 -52 41 -10 8 -28 23 -41 32 -83 61 -147 106 -175
122 -18 11 -33 23 -33 27 0 4 -5 8 -11 8 -6 0 -34 15 -62 34 -111 72 -447 253
-487 261 -3 1 -25 10 -50 22 -197 92 -620 220 -845 256 -16 3 -57 10 -90 15
-33 6 -82 14 -110 17 -27 4 -63 9 -80 11 -114 16 -716 30 -729 17z"/>
</g>
</svg>
